<?xml version="1.0" encoding="iso-8859-1"?>
<svg version="1.1" color="white" id="Capa_1" xmlns="http://www.w3.org/2000/svg" xmlns:xlink="http://www.w3.org/1999/xlink" x="0px" y="0px"
	 width="26.042px" height="26.042px" viewBox="0 0 26.042 26.042" style="enable-background:new 0 0 26.042 26.042;"
	 xml:space="preserve">
<g>
	<g>
		<path fill="currentColor" d="M5.208,23.438h15.625c2.864,0,5.208-2.344,5.208-5.208V9.956c-0.826-1.57-2.562-2.664-4.584-2.664H4.583
			C2.561,7.292,0.826,8.386,0,9.956v8.274C0,21.094,2.344,23.438,5.208,23.438z M16.614,15.713c-0.471,0-1.067,0.124-1.689,0.249
			c-0.736,0.207-1.317-0.249-1.219-0.982l0.108-3.282c0-0.721,0.486-0.97,1.109-0.97h4.018c1.162,0,1.136,1.745,0,1.745h-3.396
			l-0.082,1.675c2.173-0.581,4.808,0.347,4.808,2.896c0,2.19-1.704,3.27-3.782,3.27c-1.178,0-2.189-0.457-2.785-1.456
			c-0.528-0.954,0.845-1.883,1.454-0.954c0.387,0.485,0.887,0.708,1.33,0.708c0.996,0,1.953-0.362,1.953-1.567
			C18.443,16.059,17.487,15.713,16.614,15.713z M6.068,18.802c1.245-1.329,2.422-2.188,3.766-3.406
			c1.277-0.997,1.261-2.992-0.608-2.992c-0.595,0-1.221,0.359-1.58,0.928c-0.555,0.873-2.01,0.29-1.454-0.956
			c0.623-1.218,1.83-1.704,3.033-1.704c3.282,0,4.583,3.379,1.953,5.942c-1.011,0.858-1.704,1.356-2.688,1.938
			c0.61,0,1.344-0.083,1.954-0.083h1.607c1.064,0,1.205,1.786,0,1.786H6.675C5.818,20.256,5.472,19.426,6.068,18.802z"/>
		<path fill="currentColor" d="M4.583,6.25h16.875c1.823,0,3.458,0.748,4.584,1.926V7.813c0-2.865-2.344-5.208-5.208-5.208H5.208
			C2.344,2.604,0,4.948,0,7.813v0.364C1.126,6.998,2.76,6.25,4.583,6.25z M17.737,3.017c0.444,0,0.804,0.543,0.804,1.215
			s-0.36,1.216-0.804,1.216c-0.445,0-0.807-0.544-0.807-1.216S17.292,3.017,17.737,3.017z M14.516,3.017
			c0.443,0,0.804,0.543,0.804,1.215s-0.36,1.216-0.804,1.216c-0.446,0-0.807-0.544-0.807-1.216S14.07,3.017,14.516,3.017z
			 M11.292,3.017c0.446,0,0.807,0.543,0.807,1.215s-0.362,1.216-0.807,1.216s-0.804-0.544-0.804-1.216S10.848,3.017,11.292,3.017z
			 M8.071,3.017c0.445,0,0.806,0.543,0.806,1.215S8.515,5.448,8.071,5.448c-0.445,0-0.804-0.544-0.804-1.216
			S7.625,3.017,8.071,3.017z"/>
	</g>
</g>
<g>
</g>
<g>
</g>
<g>
</g>
<g>
</g>
<g>
</g>
<g>
</g>
<g>
</g>
<g>
</g>
<g>
</g>
<g>
</g>
<g>
</g>
<g>
</g>
<g>
</g>
<g>
</g>
<g>
</g>
</svg>
